<?xml version="1.0" encoding="UTF-8" standalone="no"?>
<!DOCTYPE svg PUBLIC "-//W3C//DTD SVG 1.1//EN" "http://www.w3.org/Graphics/SVG/1.1/DTD/svg11.dtd">
<svg xmlns="http://www.w3.org/2000/svg" version="1.1" viewBox="0.00 0.00 1024.00 1024.00">
<path fill="#f7f6f6" d="
  M 221.08 573.13
  A 0.37 0.36 -45.5 0 0 220.50 573.14
  Q 202.93 595.91 176.58 605.76
  C 162.41 611.06 147.73 612.70 132.50 612.38
  A 0.45 0.45 0.0 0 1 132.05 611.95
  Q 131.24 598.62 133.69 584.65
  Q 140.21 547.39 169.57 523.59
  A 0.48 0.48 0.0 0 0 169.57 522.83
  Q 141.45 499.80 134.43 463.85
  Q 131.46 448.65 132.10 433.63
  A 1.08 1.08 0.0 0 1 133.17 432.60
  Q 143.25 432.48 153.78 433.93
  C 180.37 437.59 205.48 451.95 220.63 474.41
  A 0.53 0.53 0.0 0 0 221.52 474.39
  Q 223.48 471.16 226.18 467.96
  C 246.77 443.55 277.92 430.68 309.87 432.70
  A 0.42 0.42 0.0 0 1 310.26 433.12
  Q 310.30 437.01 310.24 442.99
  Q 309.79 491.85 273.05 523.03
  A 0.53 0.52 44.0 0 0 273.07 523.84
  Q 301.22 546.25 308.03 581.72
  Q 310.99 597.15 309.98 612.11
  A 0.36 0.36 0.0 0 1 309.63 612.45
  Q 296.44 612.76 284.64 610.85
  C 259.29 606.74 236.97 593.45 221.08 573.13
  Z
  M 264.32 522.61
  A 43.01 43.01 0.0 0 0 221.31 479.60
  A 43.01 43.01 0.0 0 0 178.30 522.61
  A 43.01 43.01 0.0 0 0 221.31 565.62
  A 43.01 43.01 0.0 0 0 264.32 522.61
  Z"
/>
<path fill="#f7f6f6" d="
  M 457.39 445.95
  A 0.56 0.56 0.0 0 1 458.16 446.47
  L 458.16 488.43
  A 0.37 0.37 0.0 0 0 458.80 488.69
  Q 470.18 476.88 487.00 477.34
  C 507.07 477.88 521.28 491.00 521.46 511.78
  Q 521.58 525.75 521.46 569.59
  A 0.52 0.51 -89.4 0 1 520.95 570.10
  L 499.84 570.10
  A 0.70 0.70 0.0 0 1 499.14 569.40
  Q 499.22 539.86 499.12 518.76
  C 499.07 508.47 493.72 500.43 483.51 498.99
  C 473.33 497.55 463.58 501.51 459.51 511.11
  Q 457.75 515.27 457.81 527.16
  Q 457.94 554.31 457.87 569.71
  A 1.20 1.20 0.0 0 1 456.67 570.90
  L 436.76 570.90
  A 1.01 1.01 0.0 0 1 435.75 569.89
  L 435.75 456.31
  A 2.05 2.04 78.8 0 1 437.01 454.42
  L 457.39 445.95
  Z"
/>
<path fill="#f7f6f6" d="
  M 410.56 505.03
  A 0.44 0.43 32.7 0 1 409.90 505.17
  C 400.52 497.64 387.82 496.19 377.18 501.65
  C 363.71 508.55 358.61 525.82 367.31 539.10
  Q 374.71 550.40 388.72 551.55
  C 396.45 552.19 402.99 549.84 409.34 546.00
  A 0.84 0.84 0.0 0 1 410.50 546.30
  L 419.26 561.48
  A 1.59 1.58 57.0 0 1 418.82 563.56
  Q 399.27 577.62 375.40 571.02
  C 339.47 561.08 329.57 515.48 355.48 490.06
  Q 365.68 480.06 380.29 477.41
  Q 401.88 473.49 419.53 486.02
  A 1.08 1.07 -58.7 0 1 419.86 487.40
  L 410.56 505.03
  Z"
/>
<path fill="#f7f6f6" d="
  M 560.58 530.47
  A 0.59 0.59 0.0 0 0 560.00 531.16
  Q 562.91 546.95 578.83 550.72
  Q 596.76 554.97 610.26 542.47
  A 0.55 0.55 0.0 0 1 611.02 542.49
  L 624.50 555.97
  A 1.01 1.00 45.6 0 1 624.49 557.41
  Q 608.00 573.17 586.48 573.06
  Q 572.26 572.99 561.26 566.70
  C 548.44 559.38 538.83 545.52 538.08 530.49
  C 537.75 523.70 537.75 515.69 539.81 509.39
  C 546.94 487.61 565.85 474.95 588.79 476.74
  C 607.64 478.21 623.01 490.36 628.28 508.39
  C 630.14 514.77 630.23 521.52 630.06 528.52
  Q 630.02 530.05 628.89 530.35
  Q 628.87 530.35 626.58 530.36
  Q 584.11 530.41 560.58 530.47
  Z
  M 584.40 514.46
  Q 604.77 514.38 606.57 514.44
  A 0.81 0.81 0.0 0 0 607.35 513.33
  Q 601.37 497.89 584.75 497.70
  Q 584.54 497.70 584.34 497.70
  Q 584.14 497.70 583.94 497.70
  Q 567.32 498.02 561.45 513.50
  A 0.81 0.81 0.0 0 0 562.24 514.60
  Q 564.04 514.53 584.40 514.46
  Z"
/>
<path fill="#f7f6f6" d="
  M 874.98 560.63
  A 0.46 0.46 0.0 0 0 874.18 560.33
  Q 863.30 572.55 846.46 572.98
  C 818.28 573.69 798.37 550.85 799.02 523.48
  C 799.71 494.26 823.29 472.60 852.79 477.20
  Q 865.69 479.20 874.42 488.77
  A 0.48 0.48 0.0 0 0 875.25 488.45
  L 875.25 480.86
  A 0.83 0.83 0.0 0 1 876.08 480.03
  L 896.00 480.03
  A 0.97 0.96 90.0 0 1 896.96 481.00
  L 896.96 569.27
  A 0.82 0.82 0.0 0 1 896.14 570.09
  L 876.08 570.09
  A 1.10 1.09 0.0 0 1 874.98 569.00
  L 874.98 560.63
  Z
  M 875.36 524.82
  A 26.91 26.91 0.0 0 0 848.45 497.91
  A 26.91 26.91 0.0 0 0 821.54 524.82
  A 26.91 26.91 0.0 0 0 848.45 551.73
  A 26.91 26.91 0.0 0 0 875.36 524.82
  Z"
/>
<path fill="#f7f6f6" d="
  M 666.99 489.30
  A 0.46 0.46 0.0 0 0 667.81 489.58
  Q 677.92 476.63 694.23 476.69
  C 705.44 476.72 712.52 481.13 719.92 489.61
  A 0.60 0.60 0.0 0 0 720.78 489.65
  C 722.39 488.16 724.22 485.99 725.57 484.89
  C 734.11 477.92 744.61 475.74 755.49 477.02
  C 769.23 478.63 779.82 487.02 783.21 500.77
  Q 784.26 505.02 784.33 512.01
  Q 784.55 532.94 784.46 569.23
  A 0.83 0.83 0.0 0 1 783.63 570.06
  L 762.98 570.06
  A 0.86 0.86 0.0 0 1 762.12 569.20
  Q 762.16 546.03 762.16 520.50
  C 762.16 511.64 761.05 504.21 752.28 500.24
  C 747.01 497.86 738.43 498.23 733.50 501.80
  C 726.69 506.72 725.91 513.81 725.93 522.25
  Q 726.06 562.58 726.01 569.13
  A 1.28 1.28 0.0 0 1 724.73 570.40
  L 704.59 570.40
  A 0.96 0.96 0.0 0 1 703.63 569.44
  Q 703.73 532.79 703.61 518.00
  C 703.51 505.69 697.09 497.31 683.94 498.86
  Q 672.87 500.16 668.90 511.86
  Q 667.90 514.81 667.91 521.00
  Q 667.99 555.81 668.00 569.32
  A 1.16 1.15 90.0 0 1 666.85 570.48
  L 646.58 570.48
  A 0.72 0.71 -90.0 0 1 645.87 569.76
  L 645.87 481.38
  A 1.28 1.27 90.0 0 1 647.14 480.10
  L 666.18 480.10
  A 0.81 0.81 0.0 0 1 666.99 480.91
  L 666.99 489.30
  Z"
/>
<circle fill="#f7f6f6" cx="221.28" cy="522.63" r="32.34"/>
</svg>
