<?xml version="1.0" encoding="UTF-8" standalone="no"?>
<!DOCTYPE svg PUBLIC "-//W3C//DTD SVG 1.1//EN" "http://www.w3.org/Graphics/SVG/1.1/DTD/svg11.dtd">
<svg xmlns="http://www.w3.org/2000/svg" version="1.1" viewBox="0.00 0.00 1024.00 1024.00">
<path fill="#000000" d="
  M 294.36 493.28
  A 0.46 0.45 -45.2 0 0 294.36 494.05
  Q 301.62 498.50 308.78 505.51
  Q 332.00 528.19 338.04 560.96
  Q 341.23 578.23 339.79 594.87
  A 0.70 0.69 -89.0 0 1 339.14 595.51
  C 312.03 597.23 286.84 590.91 265.06 574.67
  Q 251.60 564.65 243.22 552.02
  Q 241.72 549.76 240.86 548.67
  A 0.36 0.35 -48.6 0 0 240.27 548.71
  Q 233.71 560.09 223.55 569.12
  C 201.17 588.99 172.49 597.33 142.50 595.64
  A 0.68 0.66 87.9 0 1 141.88 595.05
  C 140.64 584.52 141.46 572.76 143.04 562.71
  C 147.36 535.26 163.36 509.14 187.44 494.39
  A 0.50 0.50 0.0 0 0 187.45 493.54
  C 153.05 472.13 138.95 434.95 141.40 395.47
  A 0.51 0.51 0.0 0 1 141.90 394.99
  Q 145.02 394.91 150.50 394.72
  C 186.44 393.45 220.93 410.41 240.39 441.02
  A 0.25 0.24 -45.3 0 0 240.80 441.01
  Q 259.62 411.28 293.11 400.12
  C 308.22 395.07 323.57 394.04 338.82 394.92
  A 0.79 0.79 0.0 0 1 339.56 395.64
  C 343.31 434.55 328.25 472.19 294.36 493.28
  Z
  M 287.4324 490.7176
  A 46.78 46.68 -5.4 0 0 236.4670 448.6472
  A 46.78 46.68 -5.4 0 0 194.2876 499.5224
  A 46.78 46.68 -5.4 0 0 245.2530 541.5928
  A 46.78 46.68 -5.4 0 0 287.4324 490.7176
  Z"
/>
<path fill="#000000" d="
  M 477.22 470.52
  A 0.19 0.19 0.0 0 0 477.54 470.66
  Q 489.83 458.32 505.34 460.62
  C 518.65 462.60 528.68 471.75 532.39 484.54
  Q 533.87 489.66 533.77 499.71
  Q 533.69 506.62 533.72 544.78
  A 0.31 0.31 0.0 0 1 533.41 545.09
  L 513.20 545.09
  A 0.49 0.49 0.0 0 1 512.72 544.53
  Q 512.76 544.27 512.75 501.27
  C 512.75 489.02 505.72 479.57 492.59 480.96
  C 484.89 481.77 479.75 487.24 477.92 494.48
  Q 477.26 497.07 477.26 502.60
  Q 477.25 517.80 477.26 544.71
  A 0.38 0.37 -0.0 0 1 476.88 545.08
  L 456.75 545.08
  A 0.43 0.42 -0.0 0 1 456.32 544.66
  L 456.32 434.22
  A 1.03 1.03 0.0 0 1 456.91 433.29
  L 476.77 423.93
  A 0.32 0.32 0.0 0 1 477.22 424.22
  L 477.22 470.52
  Z"
/>
<circle fill="#000000" cx="240.90" cy="495.09" r="34.91"/>
<path fill="#000000" d="
  M 431.95 520.93
  L 441.17 534.40
  A 0.78 0.78 0.0 0 1 441.20 535.22
  C 438.11 540.51 430.69 544.27 424.96 545.67
  Q 414.83 548.14 403.07 546.60
  C 375.86 543.05 362.65 519.66 367.11 493.80
  C 369.95 477.31 382.51 465.29 398.72 461.70
  Q 421.93 456.57 441.08 470.78
  A 0.75 0.75 0.0 0 1 441.25 471.82
  L 430.54 486.90
  A 0.60 0.59 -51.9 0 1 429.67 487.01
  Q 420.37 478.96 408.85 480.36
  C 396.43 481.86 387.54 491.39 387.88 504.02
  C 388.29 518.87 398.51 528.06 413.09 528.05
  Q 423.06 528.04 431.06 520.82
  A 0.59 0.59 0.0 0 1 431.95 520.93
  Z"
/>
<path fill="#000000" d="
  M 571.41 510.47
  C 576.59 531.42 601.07 533.95 615.18 520.86
  A 0.59 0.59 0.0 0 1 616.06 520.96
  Q 621.08 528.22 628.81 533.04
  A 0.59 0.59 0.0 0 1 628.97 533.90
  Q 627.75 535.54 625.73 536.96
  C 619.22 541.58 612.30 545.19 604.36 546.42
  C 586.24 549.22 568.06 544.72 557.02 529.14
  Q 548.75 517.47 549.44 500.67
  C 550.82 467.55 587.77 449.75 615.71 467.00
  C 630.86 476.36 636.51 491.64 633.93 509.11
  A 0.52 0.50 -85.3 0 1 633.43 509.55
  C 624.10 509.62 616.52 510.13 607.19 510.02
  Q 594.29 509.87 571.85 509.91
  A 0.45 0.45 0.0 0 0 571.41 510.47
  Z
  M 611.18 494.94
  C 609.15 485.28 603.34 478.40 592.96 477.94
  C 582.17 477.47 574.18 484.22 571.63 494.65
  A 0.51 0.51 0.0 0 0 572.12 495.28
  L 610.90 495.28
  A 0.29 0.28 -5.8 0 0 611.18 494.94
  Z"
/>
<path fill="#000000" d="
  M 651.74 462.27
  L 668.80 462.27
  A 0.66 0.66 0.0 0 1 669.46 462.93
  L 669.46 473.91
  A 0.42 0.42 0.0 0 0 670.23 474.14
  Q 677.20 463.53 689.38 460.88
  C 702.67 458.00 714.87 464.60 721.48 476.02
  A 0.61 0.61 0.0 0 0 722.51 476.05
  C 728.18 467.45 736.91 461.34 747.40 460.42
  C 763.58 459.00 777.08 470.25 780.39 485.82
  Q 781.51 491.08 781.52 497.75
  Q 781.54 513.18 781.48 544.77
  A 0.31 0.31 0.0 0 1 781.17 545.08
  L 760.96 545.08
  A 0.30 0.30 0.0 0 1 760.66 544.78
  Q 760.76 520.78 760.67 501.26
  Q 760.65 496.28 759.70 492.90
  C 756.10 480.10 740.19 476.91 731.54 486.78
  Q 726.94 492.03 726.85 500.77
  Q 726.83 502.52 726.81 544.69
  A 0.39 0.39 0.0 0 1 726.42 545.08
  L 706.18 545.08
  A 0.57 0.57 0.0 0 1 705.61 544.51
  Q 705.58 536.35 705.64 501.23
  C 705.65 490.87 701.70 482.60 691.13 480.99
  Q 687.06 480.38 683.24 481.78
  C 675.38 484.67 672.06 491.82 672.13 500.01
  Q 672.18 505.26 672.12 544.64
  A 0.44 0.44 0.0 0 1 671.68 545.08
  L 651.40 545.08
  A 0.42 0.42 0.0 0 1 650.98 544.66
  L 650.98 463.03
  A 0.76 0.76 0.0 0 1 651.74 462.27
  Z"
/>
<path fill="#000000" d="
  M 867.26 535.23
  Q 856.60 547.31 839.21 547.24
  C 817.46 547.14 800.87 532.20 798.31 510.48
  Q 797.98 507.64 798.00 502.35
  C 798.07 487.24 804.52 474.51 817.18 466.66
  C 830.11 458.65 847.38 458.03 860.38 466.09
  Q 863.69 468.15 865.91 471.29
  A 0.36 0.36 0.0 0 0 866.55 471.18
  L 868.81 462.64
  A 0.51 0.51 0.0 0 1 869.30 462.26
  L 886.38 462.26
  A 0.46 0.45 -0.0 0 1 886.84 462.71
  L 886.84 544.67
  A 0.42 0.42 0.0 0 1 886.42 545.09
  L 870.46 545.09
  A 1.01 1.01 0.0 0 1 869.47 544.26
  L 867.82 535.38
  A 0.33 0.32 -29.6 0 0 867.26 535.23
  Z
  M 837.0471 481.0142
  A 24.02 23.77 -104.3 0 0 819.9465 510.1612
  A 24.02 23.77 -104.3 0 0 848.9129 527.5658
  A 24.02 23.77 -104.3 0 0 866.0135 498.4188
  A 24.02 23.77 -104.3 0 0 837.0471 481.0142
  Z"
/>
</svg>
