<?xml version="1.0" encoding="UTF-8" standalone="no"?>
<!DOCTYPE svg PUBLIC "-//W3C//DTD SVG 1.1//EN" "http://www.w3.org/Graphics/SVG/1.1/DTD/svg11.dtd">
<svg xmlns="http://www.w3.org/2000/svg" version="1.1" viewBox="0.00 0.00 1024.00 1024.00">
<path fill="#000000" d="
  M 511.65 661.93
  A 0.16 0.16 0.0 0 0 511.39 661.93
  Q 463.98 733.59 385.79 764.60
  C 346.98 780.00 307.25 786.12 266.08 783.27
  A 0.49 0.49 0.0 0 1 265.63 782.82
  C 257.63 686.70 296.13 586.78 380.30 534.15
  A 0.25 0.24 -43.8 0 0 380.31 533.74
  Q 321.26 495.01 291.14 430.87
  C 275.03 396.57 267.06 359.57 265.13 321.31
  Q 264.26 303.97 265.98 286.76
  A 0.20 0.20 0.0 0 1 266.17 286.58
  Q 291.89 285.62 316.48 288.21
  C 385.44 295.48 449.59 328.46 493.18 382.43
  Q 502.70 394.21 511.16 406.81
  A 0.36 0.36 0.0 0 0 511.75 406.81
  Q 522.88 390.00 535.72 375.23
  C 577.65 327.00 635.95 296.92 699.27 289.03
  Q 728.00 285.45 756.54 286.58
  A 0.45 0.43 87.7 0 1 756.96 286.98
  C 760.28 322.61 756.00 359.32 746.33 393.13
  Q 737.61 423.64 719.78 453.75
  Q 695.07 495.49 656.52 523.98
  Q 649.46 529.19 642.25 533.51
  A 0.40 0.40 0.0 0 0 642.25 534.19
  C 715.82 580.03 755.39 664.15 758.01 749.03
  Q 758.52 765.46 757.50 781.99
  A 0.57 0.57 0.0 0 1 756.98 782.52
  Q 667.39 788.78 592.36 741.67
  Q 549.48 714.76 520.69 674.82
  Q 516.40 668.86 511.65 661.93
  Z
  M 398.84 524.25
  C 393.05 585.46 439.39 641.11 500.69 646.90
  C 562.00 652.70 617.94 606.72 623.72 545.51
  C 629.51 484.29 583.17 428.65 521.87 422.86
  C 460.57 417.06 404.62 463.04 398.84 524.25
  Z"
/>
<ellipse fill="#000000" cx="0.00" cy="0.00" transform="translate(511.40,534.98) rotate(-178.1)" rx="83.53" ry="83.41"/>
</svg>
