<?xml version="1.0" encoding="UTF-8" standalone="no"?>
<!DOCTYPE svg PUBLIC "-//W3C//DTD SVG 1.1//EN" "http://www.w3.org/Graphics/SVG/1.1/DTD/svg11.dtd">
<svg xmlns="http://www.w3.org/2000/svg" version="1.1" viewBox="0.00 0.00 1024.00 1024.00">
<path fill="#ffffff" d="
  M 506.45 441.87
  A 0.25 0.25 0.0 0 0 506.90 441.88
  Q 513.60 428.59 523.28 416.52
  Q 523.51 416.24 525.36 413.02
  A 1.15 0.96 85.0 0 1 525.50 412.82
  L 534.77 402.47
  A 1.45 1.14 -78.4 0 1 535.03 402.25
  Q 536.20 401.49 540.13 397.66
  C 546.68 391.29 554.67 385.56 561.54 380.55
  C 562.90 379.56 564.10 378.03 565.47 377.52
  Q 566.19 377.25 576.15 371.82
  C 594.70 361.71 614.95 355.11 636.11 351.64
  Q 642.99 350.51 649.89 350.05
  Q 663.97 349.12 665.00 349.08
  C 671.36 348.83 679.93 348.90 687.23 350.19
  A 0.84 0.84 0.0 0 1 687.92 350.98
  Q 688.19 356.82 688.69 372.08
  Q 688.87 377.53 688.51 381.43
  C 688.09 386.02 688.12 389.97 687.72 393.85
  Q 684.23 427.27 669.51 457.79
  C 661.08 475.27 649.28 490.84 634.95 504.42
  Q 619.04 519.47 599.37 528.75
  A 0.63 0.63 0.0 0 0 599.52 529.93
  Q 600.66 530.15 601.56 530.69
  Q 620.85 542.27 634.34 554.68
  Q 637.01 557.13 646.89 567.84
  Q 658.08 579.95 667.24 597.21
  Q 681.12 623.32 686.01 652.19
  Q 687.94 663.58 688.86 679.27
  Q 689.25 686.00 688.01 708.80
  A 0.73 0.73 0.0 0 1 687.34 709.49
  L 671.49 710.66
  A 0.81 0.81 0.0 0 1 671.31 710.66
  C 658.80 709.98 649.23 710.09 638.02 708.13
  Q 622.75 705.47 608.66 701.16
  Q 601.11 698.85 588.26 693.37
  C 568.58 684.99 551.84 673.17 536.22 657.79
  Q 535.53 657.11 535.05 656.85
  A 2.03 2.01 -1.8 0 1 534.31 656.16
  Q 533.07 654.22 530.95 652.64
  A 3.43 3.43 0.0 0 1 530.05 651.64
  Q 529.08 650.02 528.46 649.30
  Q 518.81 637.99 514.49 630.27
  Q 508.52 619.61 507.82 618.22
  A 0.78 0.78 0.0 0 0 506.41 618.26
  Q 505.26 620.89 504.95 621.48
  Q 494.85 640.80 480.07 656.06
  Q 464.23 672.44 444.84 683.84
  C 440.85 686.18 437.30 687.67 433.55 689.81
  Q 431.53 690.98 428.99 692.15
  Q 403.03 704.22 374.08 708.56
  Q 373.04 708.71 364.36 709.53
  Q 359.56 709.99 354.61 709.99
  C 343.34 710.01 335.96 710.47 327.16 708.94
  A 1.38 1.37 -86.1 0 1 326.02 707.63
  Q 325.66 694.69 325.49 690.70
  C 325.08 681.26 325.69 675.21 326.16 663.92
  Q 326.46 656.66 328.54 651.41
  A 8.53 8.37 -29.2 0 0 328.93 650.08
  Q 333.23 629.07 337.20 619.65
  Q 344.88 601.45 349.04 594.53
  C 351.91 589.76 353.94 585.47 356.94 581.31
  Q 360.28 576.68 361.12 574.45
  A 1.41 1.31 78.5 0 1 361.37 574.04
  L 382.54 550.63
  A 1.92 1.84 1.2 0 1 382.78 550.41
  C 389.36 545.41 393.63 541.67 399.57 538.22
  Q 404.15 535.55 406.18 534.14
  C 408.43 532.59 411.34 531.58 413.61 529.79
  A 0.69 0.69 0.0 0 0 413.45 528.61
  Q 405.25 525.13 396.95 519.63
  C 394.42 517.95 392.46 515.94 389.33 514.61
  A 1.74 1.73 -5.6 0 1 388.56 513.98
  Q 387.66 512.65 387.35 512.39
  Q 377.61 504.30 371.92 498.08
  Q 370.01 496.00 361.22 485.51
  A 4.18 4.12 14.5 0 1 360.53 484.36
  Q 359.68 482.33 358.10 480.91
  A 2.67 2.48 7.8 0 1 357.60 480.30
  Q 348.07 464.49 346.33 461.20
  Q 336.03 441.68 330.19 417.38
  Q 329.46 414.34 328.49 411.35
  Q 327.23 407.48 326.99 405.26
  Q 326.47 400.47 325.38 382.44
  Q 325.13 378.31 325.65 373.10
  C 326.37 365.91 325.71 357.57 325.83 351.37
  A 1.45 1.44 87.8 0 1 327.14 349.95
  Q 343.47 348.34 360.19 349.28
  Q 374.33 350.08 393.96 354.69
  Q 432.63 363.77 463.95 388.38
  Q 468.22 391.73 480.34 403.92
  Q 490.74 414.38 498.13 426.62
  Q 502.81 434.36 505.43 439.13
  C 505.94 440.07 506.09 441.03 506.45 441.87
  Z
  M 568.79 581.29
  Q 573.67 575.46 574.38 574.38
  Q 583.19 560.94 586.29 545.24
  Q 591.04 521.24 582.87 499.41
  Q 579.49 490.41 570.59 477.82
  C 567.16 472.98 561.63 468.04 557.71 464.81
  Q 549.19 457.81 538.78 453.71
  C 527.86 449.40 515.83 447.25 503.90 447.79
  Q 496.33 448.14 495.71 448.22
  C 485.49 449.57 476.25 452.35 467.24 457.71
  Q 456.07 464.36 447.40 473.39
  C 445.08 475.81 443.55 478.47 441.63 480.53
  Q 439.49 482.80 437.62 486.10
  Q 432.26 495.58 430.05 502.27
  C 426.50 513.06 424.93 526.33 426.12 537.73
  C 427.83 554.03 434.86 570.84 446.39 582.92
  Q 451.44 588.22 455.40 591.56
  Q 471.45 605.12 491.59 609.34
  Q 503.16 611.76 515.07 610.49
  Q 527.39 609.18 537.91 604.89
  Q 555.81 597.57 567.55 582.82
  Q 568.35 581.82 568.79 581.29
  Z"
/>
<path fill="#ffffff" d="
  M 465.09 577.90
  Q 453.96 567.34 447.90 553.56
  Q 445.55 548.21 444.61 542.60
  C 442.89 532.28 442.24 522.28 445.53 512.11
  Q 449.11 500.99 455.61 491.89
  Q 457.12 489.78 464.72 481.69
  A 4.89 4.84 4.1 0 1 465.49 481.03
  Q 469.40 478.34 473.56 475.59
  Q 488.37 465.81 508.51 465.91
  Q 520.88 465.98 530.58 469.75
  C 534.74 471.36 540.01 474.69 543.01 476.71
  Q 565.51 491.87 569.51 518.95
  C 574.93 555.72 550.71 588.87 513.18 592.87
  Q 508.74 593.35 499.35 592.77
  Q 489.76 592.19 478.24 586.76
  Q 476.96 586.15 470.58 582.36
  C 468.47 581.11 466.90 579.61 465.09 577.90
  Z"
/>
</svg>
